<svg viewBox="0 0 653.47 764.31" xmlns="http://www.w3.org/2000/svg"><g fill="#3a3a3a"><path d="m255.7 593.8 2.92-19 18-1.25v-19.67h-37.8l-1.21-19.42h-38.82v38.74h-40.32v-59.56l18.74-1.48v-40.62l-18.72-1.37v-19.94h39.81l-.35-.36v20.64h20.6v-20.67l-.38.37h38.26v-40.8l-.35.36h40.17l1.31 19.16h19.61v-39.72l-.35.35h39.43l1.38-19.69h18.08l1.89 18.81 17.89.89-.26-.38v41l19.16-1.39-.11-.12 2.32 21.1h-39.49v-39.45h-39v19.13l17.41.95 2 20 18.36 1.59 1.7 18.16h38.18q0 21.68 0 43.35l-18.76-1.35v21.25h18.71q-.14 10.3-.29 20.59l.25-.38h-39.05v40.26l-19 .92v40.13l18.09 1.73 1.76 19.63 17.3 1.38v17.89h-57.49v-39.82h-39.46c-.83-8.59-1.5-15.58-2.16-22.54l21.47 3.1v-41.45l20-1.59c0-13.8 0-26.77 0-39.75h39.15v-20.39h-38.8v20.8l-40.62-.54v-19.88l19.37-1.24c.68-6.56 1.26-12.24 1.83-17.94 12.7-1 25.41-1.89 37.81-2.8v-20.06l-18.16-1.58-1.32-18.57h-18.15v43.17c-4-.82-7.94-2.31-11.93-2.34-23.94-.23-47.88-.13-71.82-.14h-15.49v20.87h37l1.6 20.13h39.62q-.7 40.23-1.38 80.44l-17.26 1.87-1.87-20.1-21.38-1.76z"/><path d="m516.88 430h17.83v40.46l19.52 1.57 1.28 19.18 20.58 3.19-.22-.31v18l18.61 1.29v19.33l-18.67 1.42v18.62h39.1l1-18.62h18.06l1.48 18.87 17.77 1.33v59.92h-17.74v-39.39h-19.84v61c-14.15-.81-26.89-1.54-39.65-2.24q-.64-19.73-1.23-39.5h19.41v-19.12h-19v19.5h-19.25v42.28l20.29-3.46v42.38h-20.6l-1.48-18.57-17.62-1.4-1.59-19.56h-18.26l-1.58 19.83h-38l-1.29 19.69h-19.36v-41.3l-.45.51 19.37.87v-20.15l-19.35-1.31.36.35-.93-19.44h-19.69v19.44l.34-.41h-38.47v-39.62l19.21-1.14-1.13-19.87-.25.38 20.55-.38v19.77h39.44v-19.39h-39.85q.05-10.31.1-20.61h19.47v-21.39l-19.46 1.72v-21.22h81.43v-62.85zm37.37 143.55v-60.33h-58v60.36zm-19.25 21.92h-18.07v19h18.07z"/><path d="m434.8 185.85 40.82-2.66 1.25 20.35h41.46c-1 6.6-2 13.18-3.18 20.54h19.63v-18.7l-16.69-1.64-2.27-39.19h18.44l1.47 18.63 18.69 1.45 1 18.9h19.53v-39.06h19.65l1.27 18.75h18.93l1.14-18.78h37.29v60.24h-18.06v60.68h-19.77l.35.41v-80.19h-20.62v80.19l.38-.37q-9.75-.47-19.51-.93c-.59-6.05-1.16-12.13-1.69-17.87h-18.31v21.07l20.25-3.48-1.36 21.81.36-.34h-40.9v63.66l.24-.38h-17.71l.25.38-1.56-21.58-19.08 1 .5.47v-41.15l18.66-2.17 1.59-18.37 17.41-1.52v-39.72h-17.87l-1.78 18.53-18.41 1.28-1.88 19.25h-17.45v-39.43l18.29-1.38v-18.84h-38.61l.32.28-2.06-20.66-18.36-1.18-1.93-18.38zm121 39.63v18.75h18.72v-18.75z"/><path d="m177.65 164.54 21.6 1.07-.12-.11v38.37l18.75 1.38.84 18.68h18.71l1.28-18.53 17.94-1.67 1.35-18.73h18.12v39.25l-18.67 1.2-1.29 19-17.85 1.55v18.74l18.31 1.3v40.45h59.62v21h-58.62v20.78h59.21v41.3l.35-.35h-20.52v-19.35h-40.57v39.9l.35-.36h-18l.41.34v-62.06l-20.67 1.07.34.37v-20.61l-.36.35 19.06-1.45v-40.63l-18.34-1.37-1.51-20.2h-59.91l.32.32v-40.81h-38.22l.37.38v-20.6l-.35.36h58.5v-40.8z"/><path d="m318.25 185.83-39.84-3.89v-17.49l18.59-1.34v-22l-.4.44 19.57.92v-20.2l-19.57-1.33.38.24v-19.54l20.22-1.18v-19.9l-.33.33h40.92v-40.81l-.41.34h18.62l1.5 19.38 18.08.86-.41-.34.83 19.76-18.41 1.34-1.86 19-19.37 1.29 1.23 19.6-19.63 1v19.33h18.48l.96-20.64 18.48 2.24 1.63 19.49 17.19-2-.29-.24 1.83 21.6-18.51 1.65v19.35l17.44 1.5v19.41l-17.87 1.4-1.3 19.44c-6-.34-11.61-.67-17.26-1-1-6-1.89-11.94-2.9-18.42h-17.65v19.77l20.7-1.52-4 21.07-17 1-1.27 19.5h-39l-1.32 20h-18v-40h39.7c0-20.45 0-40 0-59.61 6-1 12-1.94 18.18-2.93v-18.7h-19.24z"/><path d="m137.31 533.93v142h-137.15v-142zm-117.31 20.35v102.11h98.31v-102.11z"/><path d="m0 141.16v-141.16h137.2v141.16zm19.63-19.76h98.73v-101.4h-98.73z"/><path d="m653.47.12v140.72h-136.33v-140.72zm-19.09 121.38v-101.86h-98.56v101.86z"/><path d="m516.88 368.94q0 30.55 0 61.09l.25-.38h-20.19l-1.6-19.86h-19.16v-39.73h-19.69l-.82 18.45h-20.25v-18.57h-18.84l-1 19.26h-20.34l.26.38q-.29-20-.59-40l-.26.31 21.3-2.49.84-18.83-19.18-1.75v-19l18.18-1.57v-19l-21.16-2.62.25.3 2.86-18.8h37.76l1.16 19.78 19.34 1.53v18.44l.38-.24-19.38 1.55v20.34l19.34 1.36-.38-.24v20.55h41l-.5-.47-.9 20.59h21.54z"/><path d="m120.53 449.05-21.41 2.56-1.59 19.73-39.53-2.34.23.32 1-19.62-.45.51 20.6.93v-21.47l-.32.32h19.17v-20.55h-19.23l.33.32v-40.62h58.4v-20.72h-37.83v-18.42h58.73l-.23-.31q-.26 29.94-.53 59.87h-38.53v19.39h38.12v-19.83h19.65v40.59h-58.8l2 19.64z"/><path d="m434.77 21.42 20.51-3.19 1.35-17.93h19l1.51 18.62 17.64 1.25v80.1h-18l-1-18.53h-19v59.96h18.75l1.47-18.76h17.58v39.16c-19.71 1-38.84 1.94-58 2.87l.34.31v-104.51h38.51v-20h-38.43c-.83-7.33-1.51-13.36-2.18-19.41.05-.01-.05.06-.05.06z"/><path d="m158.63 330-1.76-23.35h-76.87l-1.62-19.76h-18.79l-1.12 18.36h-18.87v-39.64h60.16l-.44-.4v20.61h39.22l-1-20.61-.35.36h20.61l-.32-.32v20.37l19.89 2.11 1.4 19.42h39.43v21.75l.36-.35-20.6-1v21.55l.35-.36-19.83-1.87-1.14-19.61c-6.65.81-12.83 1.56-19 2.35z"/><path d="m575.23 409.43h-19.76l-1-19.35-17.77-1.38-2.1-19.77-.24.38 20.93-1v-39.52l20-1.33v-21.8l-.36.34 20.62.92v-21.53l-.38.37h20.61l-.35-.41v61.69l-20.25 1.44v20.8l.33-.32h-20.6v40.8z"/><path d="m79.05 184.72 19.18-1.5 1.37-18.74h58.18l-.35-.41v19.65h-38.9l1 21.15.35-.36h-20.64v20.6h20.69l-.37-.38-1 19.85 18.57 1.29v19.7l.35-.36h-38.16l.44.4-1.48-19.52-18.61-1.42v-19.9h-20.82l.3.32v-20l20.26-1.32v-19.46z"/><path d="m199.25 165.61v-64l18.33-1.21 1.14-18.65h18l1.49 18.51h18.3l1.7-18.89h18.1v39.63l-18.67 1.34-1.52 18.54h-17.38l-1.24-18.29h-18.28v19.08l17.45 1.62v18.4q-18.75 1.88-37.56 3.8z"/><path d="m636.59 369.8-2.21 18.66 18.62 1.35v101.31h-16.87l-1.42-19.45-18.28-1.51v-17.92l18.22-2.19v-39.77l-19.24-.85.32.33v-19.87l-20.24-1.21v-19.68l-.33.32 41.74.82z"/><path d="m38.85 224.77h-20v60.7h-18.44v-121.15h17.67l1.67 18.86 19.14 1.53-.35-.41v40.78z"/><path d="m239.2 40.73-2.91 19h-37.84v-39.93h-19.81l-1.15 19.47h-19v-39.16h59.51v38.94l21.61 2.06z"/><path d="m78.53 347.88h-58.86l-1.29 20.45h-18.29v-60.58l18-.91 1.58 20.92h58.86z"/><path d="m357.85 20.31-1-19.9h79.32c-.48 7.13-.94 14.06-1.41 21 0 0 .1-.06.08 0-5.42-1-10.84-2.07-18.24-3.49v42.4h-21.43l.41.35v-40.83h-38.24z"/><path d="m38.88 429.67-19.24.85-1.27 19h-18.06v-59.43h17.93l1.41 19.66h19.2l-.3-.32q0 10.29 0 20.57z"/><path d="m58 469v42.34h-18.59l-1.16-18.47-17.86-1.62v-18.55q18.92-1.65 37.85-3.34z"/><path d="m296.26 61h-37.26l-3.5-20.08-.29.31 21.69-2 1.33-18.68h17.61v40.78z"/><path d="m394.61 284.61 1.63 20.8h-58.15v-17.62c18.83-.94 37.83-1.88 56.8-2.85z"/><path d="m238.6 594.48q8.57-.32 17.12-.66l-.39-.4c.65 13.22 1.31 26.44 2 40.76h-38.71v-20l-.45.51h19.35l1.31-20.56z"/><path d="m157.79 164.48v-41.23h19.86v41.29l.41-.47h-20.61z"/><path d="m38.89 184.72v-20.33h40.16v20.33l.35-.41h-40.86z"/><path d="m218.2 348.76v39.67h-19.9q0-19.8 0-39.69l-.35.36h20.6z"/><path d="m615.4 409.43v19.65h-40.17v-19.65l-.32.33h40.81z"/><path d="m176.95 634.93h-18.23v-39.93h18.23z"/><path d="m236.5 676.1h-37.85v-18.4h37.85z"/><path d="m394.9 349.58-36.9-2.89v-17.69h37.9c-.42 7-.83 13.93-1.25 20.85z"/><path d="m255.5 40.92q-8.17-.12-16.32-.21l.39.4c-.65-13.2-1.31-26.42-2-40.73h19.7c-.67 13.77-1.33 27.3-2 40.84z"/><path d="m576.08 494.44-1.24-22.15h19.79v18.2c-6.21 1.17-12.52 2.36-18.8 3.6z"/><path d="m456 305.87 19.45 1.88v18.82l-19.45 2.08.38.24v-23.26z"/><path d="m337.15 20.17-19.3-2.17v-17.91h18.87v20.5z"/><path d="m357.78 40.08h-20.61c0-6.92 0-13.43 0-19.92l-.43.43 21.12-.28-.5-.47q0 10.29 0 20.59z"/><path d="m177.48 61.32v18.77h-19.21v-18.77z"/><path d="m456.43 634.39-20.35 1.11c0-7.6 0-14.42 0-21.24l-.35.41h20.62l-.36-.35v20.58z"/><path d="m58.85 409.75h20.53l-.33-.32q0 10.28 0 20.56l.32-.32h-20.56l.32.32q0-10.29 0-20.57z"/><path d="m218.53 430v-20.24h20.35l-.41-.34-1.82 20.26h-18.46z"/><path d="m59.23 449.7-20.35.93c0-8 0-14.46 0-21l-.32.33h20.57l-.32-.32q0 10.27 0 20.53z"/><path d="m198.3 450.23v-20.23h20.23l-.33-.32v20.53l.38-.37h-20.6z"/><path d="m614.58 676h-18.39v-17.89h18.39z"/><path d="m158 677v-19h19.07v17.56z"/><path d="m456.94 225.69-1.54 19h-18.52v-19.92l20.36 1.23z"/><path d="m58.85 224.77v19.6h-20q0-9.78 0-19.6l-.3.32h20.59z"/><path d="m317.19 80.56h-19.64c-.43-6.69-.84-13.14-1.27-19.57l-.43.39c6.55-.39 13.12-.8 21-1.29v20.8z"/><path d="m218.53 594.44v-19.51h18l2.09 19.54.24-.38h-20.64z"/><path d="m218.62 614.15-20 .92v-20.63h19.89l-.33-.32q0 10.27 0 20.53z"/><path d="m38.85 409.75v-19.6h20q0 9.78 0 19.6l.3-.32h-20.59z"/><path d="m297 141.12-18.42.87v-18.64l18.4-2.16-.38-.24q0 10.31 0 20.62z"/><path d="m18.17 511.59h-17.97v-18.16h18z"/><path d="m79.71 493.36h17.89v18.13h-17.89z"/><path d="m434.91 185.75-17.17-4v-18.11c6.54.55 12.86 1.08 19.2 1.63l-.32-.29q-.87 10.45-1.8 20.86z"/><path d="m653 656h-16.66v-19.3h16.66z"/><path d="m276.43 657.86v18h-18.19v-18z"/><path d="m417.71 657.56h17.55v18.22h-17.55z"/><path d="m394.7 140.83 3.19-17.63h17.39v18.74l-20.86-1.34z"/><path d="m120.28 449.35 16.63 3.13v17.46h-17.69c.43-7 .85-13.93 1.29-20.87z"/><path d="m636.89 370.11-2.12-20.67h18.09v18.81c-5 .46-10.65 1-16.28 1.53z"/><path d="m137.19 493.53v18h-17.07v-18z"/><path d="m534.38 675.95h-17.07v-17.95h17.07z"/><path d="m476.6 409.41v40.77l18.1 1.82v18.4h-79.18l2.33-19h37.93v-42z"/><path d="m414.4 428.83 3.81-18.37h17.09v19.65l-21-1.38z"/><path d="m436.09 513.19v20.58h-20.65l.07-20.52z"/><path d="m517.15 534h17.18v18.72h-17.18z"/><path d="m39.49 574.43h57.83v59.83h-57.83z"/><path d="m39.27 100.42v-59.42h58.38v59.41z"/><path d="m614.85 100.48h-59.1v-59.55h59.1z"/></g><text fill="#353851" font-family="MyriadPro-Regular, Myriad Pro" font-size="30" transform="translate(193.12 719.61)">Share on WeChat</text></svg>